# xmcd CD database file
# Copyright (C) 1996 Ti Kan
#
# Track frame offsets:
# 	150
# 	14925
# 	35887
# 	54262
# 	84872
# 	99202
# 	110677
# 	128757
# 	145570
# 	161645
# 	174955
# 	207530
#
# Disc length: 3038 seconds
#
# Revision: 1
# Processed by: cddbd v1.4b41PL1 Copyright (c) Steve Scherf et al.
# Submitted via: DiscPlay 3.4.1
#
DISCID=9d0bdc0c
DTITLE=Two Bones and A Pick - Right Here And Now
DYEAR=1900
DGENRE=
TTITLE0=Right Here And Now
TTITLE1=Take Me Back
TTITLE2=When It All Comes Down
TTITLE3=Three Times
TTITLE4=Drums And Guitar
TTITLE5=Early Every Morning
TTITLE6=Hold On
TTITLE7=$62.50
TTITLE8=Give Me A Reason
TTITLE9=Perfect Little Pain
TTITLE10=Half As Much
TTITLE11=Just Can't Slow Down
EXTD=
EXTT0=
EXTT1=
EXTT2=
EXTT3=
EXTT4=
EXTT5=
EXTT6=
EXTT7=
EXTT8=
EXTT9=
EXTT10=
EXTT11=
PLAYORDER=
